HIERARCHY
ROOT Hips
{
  OFFSET 13.6774 106.653 -34.4427
  CHANNELS 6 Xposition Yposition Zposition Zrotation Xrotation Yrotation
  JOINT ToSpine
  {
    OFFSET -2.69724 7.43032 -0.144315
    CHANNELS 3 Zrotation Xrotation Yrotation
    JOINT Spine
    {
      OFFSET -0.0310711 10.7595 1.96963
      CHANNELS 3 Zrotation Xrotation Yrotation
      JOINT Spine1
      {
        OFFSET 19.9056 3.91189 0.764692
        CHANNELS 3 Zrotation Xrotation Yrotation
        JOINT Neck
        {
          OFFSET 25.9749 7.03908 -0.130764
          CHANNELS 3 Zrotation Xrotation Yrotation
          JOINT Head
          {
            OFFSET 9.52751 0.295786 -0.907742
            CHANNELS 3 Zrotation Xrotation Yrotation
            End Site
            {
              OFFSET 16.4037 0.713936 2.7358
            }
          }
        }
        JOINT LeftShoulder
        {
          OFFSET 17.7449 4.33886 11.7777
          CHANNELS 3 Zrotation Xrotation Yrotation
          JOINT LeftArm
          {
            OFFSET 0.911315 1.27913 9.80584
            CHANNELS 3 Zrotation Xrotation Yrotation
            JOINT LeftForeArm
            {
              OFFSET 28.6126 1.18197 -3.53199
              CHANNELS 3 Zrotation Xrotation Yrotation
              JOINT LeftHand
              {
                OFFSET 27.5088 0.0218783 0.327423
                CHANNELS 3 Zrotation Xrotation Yrotation
                End Site
                {
                  OFFSET 18.6038 -0.000155887 0.382096
                }
              }
            }
          }
        }
        JOINT RightShoulder
        {
          OFFSET 17.1009 2.89543 -12.2328
          CHANNELS 3 Zrotation Xrotation Yrotation
          JOINT RightArm
          {
            OFFSET 1.4228 0.178766 -10.211
            CHANNELS 3 Zrotation Xrotation Yrotation
            JOINT RightForeArm
            {
              OFFSET 28.733 1.87905 2.64907
              CHANNELS 3 Zrotation Xrotation Yrotation
              JOINT RightHand
              {
                OFFSET 27.4588 0.290562 -0.101845
                CHANNELS 3 Zrotation Xrotation Yrotation
                End Site
                {
                  OFFSET 17.8396 -0.255518 -0.000602873
                }
              }
            }
          }
        }
      }
    }
  }
  JOINT LeftUpLeg
  {
    OFFSET -5.61296 -2.22332 -10.2353
    CHANNELS 3 Zrotation Xrotation Yrotation
    JOINT LeftLeg
    {
      OFFSET 2.56703 -44.7417 -7.93097
      CHANNELS 3 Zrotation Xrotation Yrotation
      JOINT LeftFoot
      {
        OFFSET 3.16933 -46.5642 -3.96578
        CHANNELS 3 Zrotation Xrotation Yrotation
        JOINT LeftToeBase
        {
          OFFSET 0.346054 -6.02161 12.8035
          CHANNELS 3 Zrotation Xrotation Yrotation
          End Site
          {
            OFFSET 0.134235 -1.35082 5.13018
          }
        }
      }
    }
  }
  JOINT RightUpLeg
  {
    OFFSET -5.7928 -1.72406 10.6446
    CHANNELS 3 Zrotation Xrotation Yrotation
    JOINT RightLeg
    {
      OFFSET -2.57161 -44.7178 -7.85259
      CHANNELS 3 Zrotation Xrotation Yrotation
      JOINT RightFoot
      {
        OFFSET -3.10148 -46.5936 -4.03391
        CHANNELS 3 Zrotation Xrotation Yrotation
        JOINT RightToeBase
        {
          OFFSET -0.0828122 -6.13587 12.8035
          CHANNELS 3 Zrotation Xrotation Yrotation
          End Site
          {
            OFFSET -0.131328 -1.35082 5.13018
          }
        }
      }
    }
  }
}
MOTION
Frames: 8
Frame Time: 0.03333333333333333
0.0000 93.1000 0.0000 -52.2585 -18.3112 175.3107 -70.8888 -0.1521 88.2027 122.8167 68.8880 -39.1408 -6.7976 22.4711 1.6737 -163.0634 31.3253 -177.0297 -150.1090 70.5488 -175.6843 -0.1728 -14.9076 -32.4895 -69.6433 50.7702 -67.6389 20.4623 17.4580 -50.5505 -0.8386 0.8178 -0.8185 -3.3362 5.9116 46.1945 -68.0837 -19.9502 82.0632 24.4987 -18.6298 54.9448 0.0986 -1.5194 -1.1977 -49.3091 3.5812 90.5045 -14.0789 72.7712 0.7419 -9.1738 5.6067 1.4184 1.3251 -4.7966 5.2885 -8.0918 1.0755 80.3281 6.2278 68.7343 -7.8064 -9.8066 -26.6877 1.5321 3.1245 -2.0526 -29.5726 
0.0000 93.1000 0.0000 -53.5525 -13.1777 172.6694 -71.1287 -0.1114 88.3029 132.6050 68.7453 -47.5804 -9.1436 24.4778 0.0905 -167.7900 30.2417 -178.0840 -146.5018 68.9364 -180.2601 -0.1764 -14.2218 -32.6750 -57.5784 56.8023 -75.8087 19.6016 21.4425 -43.1634 0.1464 0.0808 0.4521 -2.6342 6.7090 43.8380 -71.9230 -20.5666 89.1112 29.0961 -16.8465 63.6936 -0.1574 0.5687 0.5286 -38.5074 4.8874 93.7197 -65.5492 83.9883 50.4079 -7.6834 7.1809 1.3886 3.1660 -10.7707 5.2422 -17.0445 4.5366 83.0856 5.2351 65.3119 -5.3890 -11.2009 -28.7428 0.7663 3.8019 -6.2423 -28.6674 
0.0000 93.1000 0.0000 -52.5014 -9.6693 170.4579 -71.0580 -0.4826 87.7933 135.5818 69.8020 -51.4001 -10.5635 26.4503 2.1402 -166.4204 29.4840 -178.4310 -142.2251 67.6979 176.8186 0.3941 -14.6794 -32.0424 -48.8416 61.3744 -80.6075 23.3982 25.9030 -44.4065 -0.2544 0.1392 -0.6266 -2.5876 6.9528 40.1960 -74.8605 -24.6423 95.3156 34.1655 -10.6710 74.0394 0.6044 -0.8868 -0.9821 -24.7159 4.0046 93.6105 -139.7905 82.0932 126.4036 -5.6676 6.0190 0.9151 2.9262 -10.0015 7.3194 -27.3950 4.5001 83.3685 4.0984 57.9124 0.9011 -8.5223 -29.7957 1.0700 2.3370 -7.0446 -26.8000 
0.0000 93.1000 0.0000 -53.1273 -7.5865 169.2715 -71.1374 -0.3129 88.2260 136.7645 71.0983 -53.7597 -11.9136 28.2406 2.6276 -167.1822 29.9874 -177.7881 -141.5483 67.2636 173.0852 -0.5035 -14.2934 -31.1220 -44.4282 65.0419 -79.7676 31.1526 28.1086 -52.2580 0.0507 -0.4150 0.1597 -2.1054 6.8302 37.2925 -75.7284 -28.5598 99.2110 40.1781 -5.7331 83.0442 -0.2301 0.4488 0.6591 -15.5412 2.8368 92.7907 -135.5104 83.3952 125.0310 -4.4268 5.7868 0.8291 1.6118 -6.5340 9.3840 -39.0759 3.6013 85.4727 2.5698 49.0148 3.0564 -5.3816 -23.9600 0.5022 2.0870 -11.4419 -16.0647 
0.0000 93.1000 0.0000 -54.3609 -6.5074 169.2543 -71.3258 0.1086 88.4174 134.6640 73.3465 -52.0444 -11.6028 29.0182 3.1177 -166.5896 30.4911 -178.0618 -143.2625 67.3390 173.1741 0.0232 -14.3112 -29.4009 -36.7207 69.1117 -81.8444 32.4476 24.3198 -57.5436 0.1052 0.0448 -0.0725 -1.7864 6.7214 35.7308 -75.8673 -31.1576 101.1590 41.4882 1.3536 90.9015 -0.2547 -0.1739 0.1836 -9.6387 0.8732 92.7478 -41.5145 83.0169 33.6422 -2.5381 7.8089 0.5671 0.6311 -5.3852 8.7801 -51.9562 1.9629 84.8895 1.1346 38.6037 6.5977 -2.6021 -7.5328 -0.1298 2.1112 -21.1091 0.2493 
0.0000 93.1000 0.0000 -53.0646 -4.7479 169.3476 -71.3703 0.8226 88.3166 131.5729 75.0183 -47.9813 -9.3430 29.2960 2.2355 -167.3171 30.4130 -178.1429 -143.3093 67.4690 173.3463 0.1535 -14.3356 -28.2721 -28.5681 71.0522 -86.6516 30.0466 19.2644 -60.7431 0.2666 0.3298 0.2430 -0.7742 6.6482 33.5877 -76.6402 -33.6161 100.5803 41.7683 7.2020 97.2137 -0.3511 0.6026 0.8515 -6.9398 -0.0063 93.5237 -10.6159 70.0844 2.5282 -5.9301 10.0903 0.9754 0.1988 -5.7844 7.8634 -59.5035 -0.7744 81.3477 0.5352 32.0380 16.4691 2.1544 12.0604 -2.1654 2.5755 -22.9207 3.3966 
0.0000 93.1000 0.0000 -54.0929 -2.4331 169.2997 -71.2520 0.2208 87.8021 131.5692 76.8130 -45.7777 -8.5460 29.8321 1.3843 -167.2213 30.3485 -176.4688 -147.6003 68.5478 180.4690 -0.1791 -14.1112 -28.2347 -24.4907 71.9422 -89.7228 28.1984 14.9643 -63.3849 0.0901 0.1124 -0.4837 -1.8654 6.7623 33.1693 -78.1133 -33.9743 95.5397 40.7951 10.1254 101.0851 -0.1239 -0.2220 -0.4489 -8.4215 -1.2482 96.6202 -4.9591 51.2532 -12.9159 -11.8803 12.5137 3.0602 0.6935 -6.0539 8.8247 -65.5065 -1.8210 79.8895 -1.4955 31.2492 29.1055 5.1785 19.5461 -3.6449 2.5053 -12.5338 -18.5528 
0.0000 93.1000 0.0000 -54.0685 -1.2033 170.8363 -71.1067 0.9130 88.0518 128.2909 78.1410 -40.4377 -6.8841 30.4402 -0.2940 -167.4129 29.4137 -177.5140 -151.6490 68.4201 -176.1703 -0.3567 -13.0341 -28.4560 -30.5947 73.2787 -84.7222 27.6529 14.9275 -64.9023 -0.0410 0.3500 0.2180 -0.9939 6.5696 33.8828 -81.8502 -32.4827 91.3093 37.6210 8.2961 100.2906 -0.3493 1.0687 1.4116 -10.8235 -1.0435 99.3259 -3.3492 34.2897 -19.3858 -15.9019 13.6201 3.9462 2.2610 -8.7292 7.1204 -67.1369 2.0135 90.8814 1.6157 36.4244 9.5212 0.2057 17.1802 -2.2884 2.1595 -8.2078 -6.6470 
